<svg xmlns="http://www.w3.org/2000/svg" xmlns:xlink="http://www.w3.org/1999/xlink" fill="none" version="1.1" width="116.59756310944067" height="116.80773669148152" viewBox="0 0 116.59756310944067 116.80773669148152"><defs><filter id="master_svg0_0_262075" filterUnits="objectBoundingBox" color-interpolation-filters="sRGB" x="-0.7834470207657636" y="-0.7794781379761493" width="2.566894041531527" height="2.5589562759522986"><feFlood flood-opacity="0" result="BackgroundImageFix"/><feColorMatrix in="SourceAlpha" type="matrix" values="0 0 0 0 0 0 0 0 0 0 0 0 0 0 0 0 0 0 127 0"/><feOffset dy="0" dx="0"/><feGaussianBlur stdDeviation="8.5"/><feColorMatrix type="matrix" values="0 0 0 0 1 0 0 0 0 0.5 0 0 0 0 0.5 0 0 0 0.6000000238418579 0"/><feBlend mode="normal" in2="BackgroundImageFix" result="effect1_dropShadow"/><feBlend mode="normal" in="SourceGraphic" in2="effect1_dropShadow" result="shape"/></filter><linearGradient x1="0.5" y1="0" x2="0.5" y2="1" id="master_svg1_0_14396"><stop offset="0%" stop-color="#FF2F2F" stop-opacity="1"/><stop offset="33.776891231536865%" stop-color="#FFFFFF" stop-opacity="1"/><stop offset="100%" stop-color="#FFFFFF" stop-opacity="1"/></linearGradient></defs><g transform="matrix(0.9988607168197632,-0.04772058129310608,0.04772058129310608,0.9988607168197632,-1.7563660907605012,1.7409773209416954)" filter="url(#master_svg0_0_262075)"><path d="M35.63296343583755,63.90803986356414C36.637664135837554,66.22923986356415,37.650134135837554,68.55033986356415,38.66778413583756,70.86633986356415C40.06090413583755,65.51123986356414,42.14023413583755,60.072539863564145,45.40551413583756,55.58423986356415C50.509264135837554,48.73823986356415,56.915564135837556,45.088119863564145,65.43226413583756,44.61552986356415C58.08086413583756,42.90272986356415,51.31466413583755,45.116839863564145,45.52721413583755,49.74873986356415C41.415184135837556,53.78523986356414,37.647544135837556,58.41193986356414,35.63296343583755,63.90803986356414ZM63.420264135837556,49.169039863564144C63.68956413583756,49.22913986356414,63.82166413583755,49.260439863564145,64.09096413583755,49.32053986356415C64.57776413583755,49.43013986356414,64.94026413583755,49.837539863564146,64.99466413583755,50.33353986356415C65.02566413583756,50.60773986356415,65.03866413583755,50.743539863564145,65.06976413583756,51.01763986356414C65.12926413583756,50.74873986356415,65.16036413583755,50.615539863564145,65.21996413583756,50.34663986356415C65.32866413583756,49.861039863564145,65.73526413583755,49.498039863564145,66.23236413583756,49.445839863564146C66.50686413583756,49.417139863564145,66.64156413583756,49.40143986356415,66.91596413583756,49.37273986356415C66.64666413583755,49.312639863564144,66.51206413583756,49.28133986356414,66.24536413583755,49.22133986356415C65.75856413583756,49.11163986356414,65.39596413583756,48.704339863564144,65.34166413583756,48.210839863564146C65.31316413583755,47.93673986356414,65.29756413583755,47.800939863564146,65.26656413583756,47.526779863564144C65.20696413583755,47.795739863564144,65.17586413583756,47.92883986356415,65.11636413583756,48.19783986356415L65.11636413583756,48.195139863564144C65.00756413583755,48.680839863564145,64.60106413583756,49.04373986356414,64.10386413583755,49.09593986356415C63.82936413583755,49.124739863564145,63.69476413583756,49.140339863564144,63.420264135837556,49.169039863564144ZM65.55396413583756,52.795739863564144C66.05626413583755,52.90803986356414,66.30746413583756,52.96543986356414,66.81246413583756,53.07773986356415C67.54526413583756,53.242239863564144,68.09166413583756,53.850539863564144,68.17446413583755,54.59473986356414C68.23146413583756,55.10383986356415,68.25996413583755,55.359739863564144,68.31686413583756,55.87143986356415C68.42826413583755,55.37013986356415,68.48516413583755,55.11953986356414,68.59656413583755,54.61823986356414C68.75966413583755,53.889739863564145,69.37076413583756,53.34403986356415,70.11656413583756,53.260439863564145L71.39836413583755,53.116839863564145C70.89596413583754,53.004639863564144,70.64216413583756,52.94973986356415,70.13986413583756,52.837539863564146C69.40706413583756,52.67563986356414,68.86066413583755,52.06723986356415,68.77526413583755,51.323139863564144C68.71826413583756,50.81403986356415,68.68976413583755,50.55813986356414,68.63276413583756,50.04633986356414C68.52146413583756,50.54763986356414,68.46446413583755,50.798339863564145,68.35316413583755,51.299639863564146L68.35576413583755,51.30223986356415C68.19256413583756,52.03073986356414,67.58146413583755,52.57643986356415,66.83576413583755,52.65733986356415C66.32306413583755,52.71213986356415,66.06666413583756,52.740939863564144,65.55396413583756,52.795739863564144ZM64.80556413583756,55.67043986356414C64.87556413583755,55.68603986356415,64.91176413583756,55.69393986356415,64.98166413583755,55.709539863564146C65.47106413583755,55.81923986356415,65.83616413583755,56.22653986356414,65.89056413583755,56.72263986356415C65.89836413583755,56.79313986356415,65.90356413583756,56.82973986356414,65.91126413583756,56.90283986356415C65.92686413583755,56.832339863564144,65.93456413583755,56.798339863564145,65.95016413583755,56.72783986356414C66.05886413583755,56.242239863564144,66.46806413583755,55.87933986356414,66.96516413583755,55.824439863564145C67.03766413583756,55.81663986356415,67.07396413583756,55.81403986356415,67.14646413583756,55.80613986356414C67.07656413583756,55.79053986356415,67.04026413583756,55.782739863564146,66.97036413583756,55.76703986356415C66.48096413583755,55.65733986356415,66.11586413583755,55.25003986356415,66.06146413583755,54.75653986356414C66.05376413583755,54.68603986356415,66.04856413583755,54.649539863564144,66.04076413583755,54.57643986356415C66.02526413583756,54.64693986356414,66.01746413583756,54.680839863564145,66.00196413583755,54.75133986356414C65.89316413583755,55.23703986356415,65.48406413583756,55.599939863564146,64.98686413583755,55.652139863564145C64.91436413583756,55.65993986356415,64.87816413583755,55.66253986356415,64.80556413583756,55.67043986356414ZM35.583764135837555,53.085539863564144C41.67154413583756,45.205619863564145,51.01686413583755,41.905339863564144,60.65216413583755,41.701679863564145C73.32926413583755,42.106359863564144,77.56846413583756,58.104439863564146,66.65136413583755,64.82583986356414C64.54626413583756,60.139539863564146,62.461964135837555,55.44543986356415,60.400964135837555,50.73823986356415C57.77526413583756,50.57903986356415,55.14956413583755,50.40933986356414,52.523864135837556,50.234339863564145C51.539864135837554,52.73823986356415,51.04536413583756,53.99153986356414,50.05096413583755,56.49283986356414C52.74656413583756,56.678239863564144,54.09566413583755,56.76703986356415,56.79126413583755,56.93673986356414Q59.25386413583756,62.35323986356414,61.747464135837554,67.75403986356415C58.368264135837556,69.38063986356414,54.916564135837554,70.84283986356414,51.14376413583756,71.17183986356414C52.56786413583755,67.56863986356414,53.98696413583755,63.96023986356414,55.398164135837554,60.35193986356414C52.69476413583756,60.176939863564144,51.34306413583755,60.08823986356414,48.64236413583755,59.900239863564146C45.933764135837556,66.33883986356415,43.199314135837554,72.76443986356415,40.441554135837556,79.18223986356415C43.181184135837555,79.38593986356415,44.55100413583756,79.48513986356414,47.29326413583755,79.67573986356415C47.70756413583756,78.88723986356415,47.912064135837554,78.49033986356415,48.32386413583755,77.70183986356415C53.730564135837554,77.31283986356414,59.207264135837555,75.41983986356414,64.10906413583756,73.14833986356415C65.25356413583755,75.74363986356414,66.40326413583756,78.33893986356415,67.55556413583756,80.93163986356414C70.17866413583755,81.07523986356415,71.49156413583756,81.14313986356414,74.11466413583756,81.27363986356414C72.50146413583755,77.69143986356414,70.89856413583755,74.10653986356414,69.30086413583756,70.51643986356414C74.11206413583756,66.12213986356414,78.64876413583755,60.928939863564146,78.96466413583755,54.07773986356415C79.20546413583756,48.85833986356415,76.89316413583755,42.41969986356415,72.07416413583755,40.01759986356414C64.97136413583755,36.477109863564145,56.49866413583756,37.268240863564145,49.11876413583755,40.067209863564145C43.450484135837556,42.52674986356415,38.45286413583756,47.623379863564146,35.583764135837555,53.085539863564144Z" fill="url(#master_svg1_0_14396)" fill-opacity="1"/></g></svg>