<svg xmlns="http://www.w3.org/2000/svg" xmlns:xlink="http://www.w3.org/1999/xlink" fill="none" version="1.1" width="36" height="36.00006103515625" viewBox="0 0 36 36.00006103515625"><defs><filter id="master_svg0_0_262096" filterUnits="objectBoundingBox" color-interpolation-filters="sRGB" x="0" y="0" width="1" height="1"><feFlood flood-opacity="0" result="BackgroundImageFix"/><feBlend mode="normal" in="SourceGraphic" in2="BackgroundImageFix" result="shape"/><feColorMatrix in="SourceAlpha" type="matrix" result="hardAlpha" values="0 0 0 0 0 0 0 0 0 0 0 0 0 0 0 0 0 0 127 0"/><feOffset dy="-3" dx="3"/><feGaussianBlur stdDeviation="2"/><feComposite in2="hardAlpha" operator="arithmetic" k2="-1" k3="1"/><feColorMatrix type="matrix" values="0 0 0 0 0 0 0 0 0 0 0 0 0 0 0 0 0 0 0.4000000059604645 0"/><feBlend mode="normal" in2="shape" result="effect1_innerShadow"/></filter><filter id="master_svg1_0_262097" filterUnits="objectBoundingBox" color-interpolation-filters="sRGB" x="0" y="0" width="1" height="1"><feFlood flood-opacity="0" result="BackgroundImageFix"/><feBlend mode="normal" in="SourceGraphic" in2="BackgroundImageFix" result="shape"/><feColorMatrix in="SourceAlpha" type="matrix" result="hardAlpha" values="0 0 0 0 0 0 0 0 0 0 0 0 0 0 0 0 0 0 127 0"/><feOffset dy="4" dx="0"/><feGaussianBlur stdDeviation="0"/><feComposite in2="hardAlpha" operator="arithmetic" k2="-1" k3="1"/><feColorMatrix type="matrix" values="0 0 0 0 0 0 0 0 0 0 0 0 0 0 0 0 0 0 0.15000000596046448 0"/><feBlend mode="normal" in2="shape" result="effect1_innerShadow"/></filter></defs><g transform="matrix(0,1,-1,0,36,-36)"><g transform="matrix(0.708418071269989,0.705793023109436,-0.7084181904792786,0.7057929039001465,20.653942399017943,-47.72421556081491)"><rect x="68.0888671875" y="1.1299246549606323" width="5.521053791046143" height="43.88446807861328" rx="0" fill="#000000" fill-opacity="1"/></g><g transform="matrix(1,1.3230895009224404e-23,1.3234870868186717e-23,1,0,-4.763122203320785e-22)" filter="url(#master_svg0_0_262096)"><path d="M36,0C36,0,71.0106,0,71.0106,0C71.0106,0,53.5053,17.4404,53.5053,17.4404C53.5053,17.4404,36,34.8808,36,34.8808C36,34.8808,36,0,36,0Z" fill="#622F2F" fill-opacity="1"/></g><g transform="matrix(1,-6.617444900424222e-24,-6.640063120298718e-24,1,0,0)" filter="url(#master_svg1_0_262097)"><ellipse cx="44.00248646736145" cy="7.972755432128906" rx="5.001509666442871" ry="4.982975482940674" fill="#3F2727" fill-opacity="1"/></g></g></svg>